<?xml version="1.0" encoding="utf-8"?>
<!-- Generator: Adobe Illustrator 19.0.0, SVG Export Plug-In . SVG Version: 6.00 Build 0)  -->
<svg version="1.1" id="Layer_1" xmlns="http://www.w3.org/2000/svg" xmlns:xlink="http://www.w3.org/1999/xlink" x="0px" y="0px"
	 viewBox="0 0 96 96" style="enable-background:new 0 0 96 96;" xml:space="preserve">
<style type="text/css">
	.st0{fill:#88C5CC;}
	.st1{fill:#80B9BF;}
	.st2{fill:#CC584C;}
	.st3{fill:#BF5347;}
	.st4{fill:#C2E2F2;}
	.st5{fill:#CCEEFF;}
	.st6{fill:#994239;}
	.st7{fill:#F5F5F5;}
	.st8{fill:#B3B3B3;}
	.st9{fill:#A6A6A6;}
	.st10{fill:#999999;}
	.st11{fill:#242424;}
	.st12{fill:#E6E6E6;}
	.st13{fill:#263740;}
	.st14{fill:#1E2C33;}
	.st15{fill:#E6F7FF;}
	.st16{fill:#CCCCCC;}
	.st17{fill:#E78244;}
</style>
<g id="XMLID_34_">
	<circle id="XMLID_36_" class="st0" cx="48" cy="48" r="32.5"/>
	<path id="XMLID_37_" class="st1" d="M75.8,64.9L60.6,27.1c-0.2-0.7-0.8-1.1-1.4-1.2l-7.4-0.6c0-0.1-0.1-0.2-0.2-0.3
		c0-0.1-0.1-0.2-0.1-0.2c0-0.1,0-0.1-0.1-0.2c0-0.1-0.1-0.2-0.1-0.3c-0.1-0.2-0.1-0.3-0.2-0.5l0-0.1c0-0.1,0-0.1-0.1-0.2
		c-0.3-1.2-1.5-1.5-3-1.5c-0.1,0-0.2-0.1-0.3-0.1h0c-1.6,0-2.8,0.5-2.8,2.1c0,0.4,0.1,0.8,0.2,1.1l0,0.1L36.7,26
		c-0.8,0.1-1.6,0.9-1.6,1.7v0.3v0.3V35l-1,0.1c-1.1,0.1-2,1.1-2,2.2v0.3v0.3v6.1v0.3v0.3v3v0.3V48v10.5h-1v0.7v8.1v0.3v0.3l4.2,10.1
		c3.9,1.7,8.3,2.6,12.8,2.6C59.7,80.5,70.1,74.2,75.8,64.9z"/>
	<path id="XMLID_38_" class="st2" d="M60.7,35.8v-8.1c0-0.8-0.7-1.6-1.5-1.7l-9.7-0.8c-0.8,0-2.2,0-3,0L36.8,26
		c-0.8,0.1-1.5,0.9-1.5,1.7v8.1H60.7z"/>
	<path id="XMLID_39_" class="st3" d="M59.1,26l-9.6-0.8c-0.7,0-1.7,0-2.5,0c0.4,0,0.7,0,1,0l9.5,0.8c0.8,0.1,1.4,0.9,1.4,1.7v8h1.5
		v-8C60.4,26.8,59.9,26.1,59.1,26z"/>
	<path id="XMLID_40_" class="st4" d="M37.1,35.2V28l9.4-0.8c0.3,0,0.8,0,1.3,0c0.6,0,1.1,0,1.6,0l9.2,0.7v7.2H37.1z"/>
	<path id="XMLID_41_" class="st5" d="M38.1,35.7v-6.8l8.4-0.7c0.3,0,0.8,0,1.2,0c0.6,0,1.1,0,1.5,0l8.2,0.7v6.8H38.1z"/>
	<rect id="XMLID_42_" x="46.7" y="28" class="st4" width="2" height="6.6"/>
	<path id="XMLID_43_" class="st2" d="M63.5,58.5V37.3c0-1.1-0.8-2.1-1.9-2.2L50,34.3c-1.1,0-2.9,0-4,0l-11.8,0.8
		C33,35.2,32,36.2,32,37.3v21.2H63.5z"/>
	<path id="XMLID_44_" class="st3" d="M61.6,35.1L50,34.3c-0.9,0-2.2,0-3.3,0c0.5,0,0.9,0,1.3,0l11.6,0.8c1.1,0.1,1.9,1.1,1.9,2.2
		v21.2h2V37.3C63.5,36.2,62.7,35.2,61.6,35.1z"/>
	<path id="XMLID_45_" class="st6" d="M49.3,43.8v-9.5c-1,0-3,0-3,0v9.5H32v3.6h14h3.6h14v-3.6H49.3z"/>
	<circle id="XMLID_46_" class="st7" cx="48" cy="45.5" r="5.6"/>
	<polygon id="XMLID_47_" class="st8" points="64.5,67.3 47.7,70.9 31,67.3 31,58.5 64.5,58.5 	"/>
	<polygon id="XMLID_48_" class="st9" points="63,58.5 63,67.3 47.1,70.7 47.8,70.9 64.5,67.3 64.5,58.5 	"/>
	<polygon id="XMLID_49_" class="st10" points="50.8,70.2 50.8,58.5 49.8,58.5 49.8,70.4 	"/>
	<polygon id="XMLID_50_" class="st10" points="54.9,69.3 54.9,58.5 53.8,58.5 53.8,69.6 	"/>
	<polygon id="XMLID_51_" class="st10" points="59.4,68.4 59.4,58.5 58.4,58.5 58.4,68.6 	"/>
	<polygon id="XMLID_52_" class="st10" points="37.1,68.6 37.1,58.5 36.1,58.5 36.1,68.4 	"/>
	<polygon id="XMLID_53_" class="st10" points="41,69.4 41.7,69.6 41.7,58.5 40.6,58.5 40.6,69.3 	"/>
	<polygon id="XMLID_54_" class="st10" points="45.7,70.4 45.7,58.5 44.7,58.5 44.7,70.2 	"/>
	<path id="XMLID_55_" class="st11" d="M53.6,45.5h-1c0,1.3-0.5,2.4-1.3,3.2c-0.8,0.8-2,1.3-3.2,1.3c-1.3,0-2.4-0.5-3.2-1.3
		c-0.8-0.8-1.3-2-1.3-3.2c0-1.3,0.5-2.4,1.3-3.2c0.8-0.8,2-1.3,3.2-1.3c1.3,0,2.4,0.5,3.2,1.3c0.8,0.8,1.3,2,1.3,3.2H53.6h1
		c0-3.6-3-6.6-6.6-6.6c-3.6,0-6.6,3-6.6,6.6c0,3.6,3,6.6,6.6,6.6c3.6,0,6.6-3,6.6-6.6H53.6z"/>
	<circle id="XMLID_56_" class="st8" cx="37.3" cy="54.6" r="3"/>
	<circle id="XMLID_57_" class="st12" cx="37.3" cy="54.6" r="2"/>
	<circle id="XMLID_58_" class="st8" cx="58.7" cy="54.6" r="3"/>
	<circle id="XMLID_59_" class="st12" cx="58.7" cy="54.6" r="2"/>
	<path id="XMLID_60_" class="st2" d="M51,24.1c0,1.7-1.4,3-3,3c-1.7,0-3-1.4-3-3c0-1.7,1.4-2,3-2C49.7,22.1,51,22.5,51,24.1z"/>
	<path id="XMLID_61_" class="st3" d="M48,22.1c-0.1,0-0.2,0-0.3,0c1.6,0,2.8,0.4,2.8,2c0,1.6-1.2,2.9-2.8,3c0.1,0,0.2,0,0.3,0
		c1.7,0,3-1.4,3-3C51,22.5,49.7,22.1,48,22.1z"/>
	<path id="XMLID_62_" class="st7" d="M50.5,24.1c0,1.4-1.1,2.5-2.5,2.5c-1.4,0-2.5-1.1-2.5-2.5c0-1.4,1.1-1.5,2.5-1.5
		C49.4,22.6,50.5,22.7,50.5,24.1z"/>
	<path id="XMLID_63_" class="st13" d="M60.7,35.8v-8.1c0-0.8-0.7-1.6-1.5-1.7l-9.7-0.8c-0.8,0-2.2,0-3,0L36.8,26
		c-0.8,0.1-1.5,0.9-1.5,1.7v8.1H60.7z"/>
	<path id="XMLID_64_" class="st14" d="M59.1,26l-9.6-0.8c-0.7,0-1.7,0-2.5,0c0.4,0,0.7,0,1,0l9.5,0.8c0.8,0.1,1.4,0.9,1.4,1.7v8h1.5
		v-8C60.4,26.8,59.9,26.1,59.1,26z"/>
	<path id="XMLID_65_" class="st4" d="M37.1,35.2V28l9.4-0.8c0.3,0,0.8,0,1.3,0c0.6,0,1.1,0,1.6,0l9.2,0.7v7.2H37.1z"/>
	<path id="XMLID_66_" class="st15" d="M38.1,35.7v-6.8l8.4-0.7c0.3,0,0.8,0,1.2,0c0.6,0,1.1,0,1.5,0l8.2,0.7v6.8H38.1z"/>
	<rect id="XMLID_67_" x="46.7" y="28" class="st4" width="2" height="6.6"/>
	<path id="XMLID_68_" class="st13" d="M63.5,58.5V37.3c0-1.1-0.8-2.1-1.9-2.2L50,34.3c-1.1,0-2.9,0-4,0l-11.8,0.8
		C33,35.2,32,36.2,32,37.3v21.2H63.5z"/>
	<path id="XMLID_69_" class="st14" d="M61.6,35.1L50,34.3c-0.9,0-2.2,0-3.3,0c0.5,0,0.9,0,1.3,0l11.6,0.8c1.1,0.1,1.9,1.1,1.9,2.2
		v21.2h2V37.3C63.5,36.2,62.7,35.2,61.6,35.1z"/>
	<path id="XMLID_70_" class="st7" d="M49.3,43.8v-9.5c-1,0-3,0-3,0v9.5H32v3.6h14h3.6h14v-3.6H49.3z"/>
	<circle id="XMLID_71_" class="st7" cx="48" cy="45.5" r="5.6"/>
	<polygon id="XMLID_72_" class="st12" points="66.8,67.2 48,70.8 29.2,67.2 31.2,58.5 64.8,58.5 	"/>
	<polygon id="XMLID_73_" class="st16" points="50.8,70.2 50.8,58.5 49.8,58.5 49.8,70.4 	"/>
	<polygon id="XMLID_74_" class="st16" points="54.9,69.3 54.9,58.5 53.8,58.5 53.8,69.6 	"/>
	<polygon id="XMLID_75_" class="st16" points="59.4,68.4 59.4,58.5 58.4,58.5 58.4,68.6 	"/>
	<polygon id="XMLID_76_" class="st16" points="37.1,68.6 37.1,58.5 36.1,58.5 36.1,68.4 	"/>
	<polygon id="XMLID_77_" class="st16" points="41,69.4 41.7,69.6 41.7,58.5 40.6,58.5 40.6,69.3 	"/>
	<polygon id="XMLID_78_" class="st16" points="45.7,70.4 45.7,58.5 44.7,58.5 44.7,70.2 	"/>
	<polygon id="XMLID_79_" class="st16" points="63,58.5 63,67.3 47.1,70.7 47.9,70.9 66.8,67.2 64.8,58.5 	"/>
	<path id="XMLID_82_" class="st17" d="M48,52.1c-3.6,0-6.6-3-6.6-6.6s3-6.6,6.6-6.6c3.6,0,6.6,3,6.6,6.6S51.6,52.1,48,52.1z
		 M48,40.9c-2.5,0-4.6,2.1-4.6,4.6S45.5,50,48,50c2.5,0,4.6-2.1,4.6-4.6S50.5,40.9,48,40.9z"/>
	<circle id="XMLID_83_" class="st8" cx="37.3" cy="54.6" r="3"/>
	<circle id="XMLID_84_" class="st12" cx="37.3" cy="54.6" r="2"/>
	<circle id="XMLID_85_" class="st8" cx="58.7" cy="54.6" r="3"/>
	<circle id="XMLID_86_" class="st12" cx="58.7" cy="54.6" r="2"/>
	<path id="XMLID_87_" class="st13" d="M51,24.1c0,1.7-1.4,3-3,3c-1.7,0-3-1.4-3-3c0-1.7,1.4-2,3-2C49.7,22.1,51,22.5,51,24.1z"/>
	<path id="XMLID_88_" class="st14" d="M48,22.1c-0.1,0-0.2,0-0.3,0c1.6,0,2.8,0.4,2.8,2c0,1.6-1.2,2.9-2.8,3c0.1,0,0.2,0,0.3,0
		c1.7,0,3-1.4,3-3C51,22.5,49.7,22.1,48,22.1z"/>
	<path id="XMLID_89_" class="st7" d="M50.5,24.1c0,1.4-1.1,2.5-2.5,2.5c-1.4,0-2.5-1.1-2.5-2.5c0-1.4,1.1-1.5,2.5-1.5
		C49.4,22.6,50.5,22.7,50.5,24.1z"/>
</g>
</svg>
